<mxfile host="app.diagrams.net" agent="Mozilla/5.0 (X11; Linux x86_64; rv:139.0) Gecko/20100101 Firefox/139.0" version="27.1.6">
  <diagram name="Page-1" id="bv914rU23m2iNC229-Wa">
    <mxGraphModel dx="1165" dy="363" grid="0" gridSize="10" guides="1" tooltips="1" connect="1" arrows="1" fold="1" page="1" pageScale="1" pageWidth="850" pageHeight="1100" math="1" shadow="0">
      <root>
        <mxCell id="0" />
        <mxCell id="1" parent="0" />
        <mxCell id="pW75CWfdBp7WY4xm1fC5-20" value="" style="endArrow=none;html=1;rounded=0;edgeStyle=elbowEdgeStyle;elbow=vertical;strokeWidth=2;fillColor=#f8cecc;strokeColor=#b85450;" parent="1" edge="1">
          <mxGeometry width="50" height="50" relative="1" as="geometry">
            <mxPoint x="466" y="300" as="sourcePoint" />
            <mxPoint x="526" y="280" as="targetPoint" />
            <Array as="points">
              <mxPoint x="506" y="300" />
            </Array>
          </mxGeometry>
        </mxCell>
        <mxCell id="pW75CWfdBp7WY4xm1fC5-19" value="" style="endArrow=none;html=1;rounded=0;edgeStyle=elbowEdgeStyle;elbow=vertical;strokeWidth=2;fillColor=#f8cecc;strokeColor=#b85450;" parent="1" edge="1">
          <mxGeometry width="50" height="50" relative="1" as="geometry">
            <mxPoint x="379" y="270" as="sourcePoint" />
            <mxPoint x="359" y="220" as="targetPoint" />
            <Array as="points">
              <mxPoint x="359" y="270" />
            </Array>
          </mxGeometry>
        </mxCell>
        <mxCell id="pW75CWfdBp7WY4xm1fC5-3" value="" style="endArrow=none;html=1;rounded=0;fillColor=#dae8fc;strokeColor=#6c8ebf;strokeWidth=3;" parent="1" edge="1">
          <mxGeometry width="50" height="50" relative="1" as="geometry">
            <mxPoint x="313" y="105" as="sourcePoint" />
            <mxPoint x="399" y="320" as="targetPoint" />
          </mxGeometry>
        </mxCell>
        <mxCell id="pW75CWfdBp7WY4xm1fC5-4" value="" style="endArrow=none;html=1;rounded=0;fillColor=#dae8fc;strokeColor=#6c8ebf;strokeWidth=3;" parent="1" edge="1">
          <mxGeometry width="50" height="50" relative="1" as="geometry">
            <mxPoint x="400" y="320" as="sourcePoint" />
            <mxPoint x="569" y="266" as="targetPoint" />
          </mxGeometry>
        </mxCell>
        <mxCell id="pW75CWfdBp7WY4xm1fC5-6" value="&lt;font style=&quot;font-size: 14px;&quot;&gt;$$0$$&lt;/font&gt;" style="text;html=1;align=center;verticalAlign=middle;whiteSpace=wrap;rounded=0;" parent="1" vertex="1">
          <mxGeometry x="390" y="331" width="20" height="16" as="geometry" />
        </mxCell>
        <mxCell id="pW75CWfdBp7WY4xm1fC5-7" value="&lt;font style=&quot;font-size: 14px;&quot;&gt;&lt;span style=&quot;background-color: light-dark(#ffffff, var(--ge-dark-color, #121212));&quot;&gt;$$z=y-\hat{y}$$&lt;/span&gt;&lt;/font&gt;" style="text;html=1;align=center;verticalAlign=middle;whiteSpace=wrap;rounded=0;" parent="1" vertex="1">
          <mxGeometry x="510" y="330" width="40" height="17" as="geometry" />
        </mxCell>
        <mxCell id="pW75CWfdBp7WY4xm1fC5-2" value="" style="endArrow=blockThin;html=1;rounded=0;endFill=1;strokeWidth=3;startSize=6;spacing=2;jumpSize=6;" parent="1" edge="1">
          <mxGeometry width="50" height="50" relative="1" as="geometry">
            <mxPoint x="400" y="325" as="sourcePoint" />
            <mxPoint x="400" y="120" as="targetPoint" />
          </mxGeometry>
        </mxCell>
        <mxCell id="pW75CWfdBp7WY4xm1fC5-1" value="" style="endArrow=blockThin;html=1;rounded=0;endFill=1;strokeWidth=3;" parent="1" edge="1">
          <mxGeometry width="50" height="50" relative="1" as="geometry">
            <mxPoint x="240" y="320" as="sourcePoint" />
            <mxPoint x="560" y="320" as="targetPoint" />
          </mxGeometry>
        </mxCell>
        <mxCell id="pW75CWfdBp7WY4xm1fC5-8" value="&lt;font style=&quot;font-size: 14px;&quot;&gt;$$L_\tau(z)$$&lt;/font&gt;" style="text;html=1;align=center;verticalAlign=middle;whiteSpace=wrap;rounded=0;" parent="1" vertex="1">
          <mxGeometry x="408" y="117" width="60" height="30" as="geometry" />
        </mxCell>
        <mxCell id="pW75CWfdBp7WY4xm1fC5-21" value="$$\tau$$" style="text;html=1;align=center;verticalAlign=middle;whiteSpace=wrap;rounded=0;" parent="1" vertex="1">
          <mxGeometry x="521" y="283" width="30" height="20" as="geometry" />
        </mxCell>
        <mxCell id="pW75CWfdBp7WY4xm1fC5-22" value="$$1-\tau$$" style="text;html=1;align=center;verticalAlign=middle;whiteSpace=wrap;rounded=0;" parent="1" vertex="1">
          <mxGeometry x="324" y="250" width="30" height="20" as="geometry" />
        </mxCell>
      </root>
    </mxGraphModel>
  </diagram>
</mxfile>
